<svg xmlns="http://www.w3.org/2000/svg" viewBox="0 0 32 32" width="512" height="512" shape-rendering="crispEdges">
  <defs>
    <style>
      .bg { fill: #141413; }
      .d  { fill: #8B3A1F; }
      .m  { fill: #C15F3C; }
      .b  { fill: #DA7756; }
      .l  { fill: #E8975E; }
      .h  { fill: #FFB38A; }
    </style>
  </defs>

  <!-- Background -->
  <rect width="32" height="32" class="bg"/>

  <!-- Plug tip (top) - row 3-4 -->
  <rect x="15" y="3" width="2" height="1" class="b"/>

  <!-- Row 4 - widening -->
  <rect x="14" y="4" width="1" height="1" class="m"/>
  <rect x="15" y="4" width="2" height="1" class="b"/>
  <rect x="17" y="4" width="1" height="1" class="m"/>

  <!-- Row 5 -->
  <rect x="13" y="5" width="1" height="1" class="m"/>
  <rect x="14" y="5" width="1" height="1" class="b"/>
  <rect x="15" y="5" width="2" height="1" class="l"/>
  <rect x="17" y="5" width="1" height="1" class="b"/>
  <rect x="18" y="5" width="1" height="1" class="m"/>

  <!-- Row 6 -->
  <rect x="12" y="6" width="1" height="1" class="d"/>
  <rect x="13" y="6" width="1" height="1" class="m"/>
  <rect x="14" y="6" width="1" height="1" class="b"/>
  <rect x="15" y="6" width="1" height="1" class="h"/>
  <rect x="16" y="6" width="1" height="1" class="l"/>
  <rect x="17" y="6" width="1" height="1" class="b"/>
  <rect x="18" y="6" width="1" height="1" class="m"/>
  <rect x="19" y="6" width="1" height="1" class="d"/>

  <!-- Row 7 - widest part of bulge -->
  <rect x="11" y="7" width="1" height="1" class="d"/>
  <rect x="12" y="7" width="1" height="1" class="m"/>
  <rect x="13" y="7" width="1" height="1" class="b"/>
  <rect x="14" y="7" width="1" height="1" class="l"/>
  <rect x="15" y="7" width="1" height="1" class="h"/>
  <rect x="16" y="7" width="1" height="1" class="l"/>
  <rect x="17" y="7" width="1" height="1" class="b"/>
  <rect x="18" y="7" width="1" height="1" class="m"/>
  <rect x="19" y="7" width="1" height="1" class="m"/>
  <rect x="20" y="7" width="1" height="1" class="d"/>

  <!-- Row 8 -->
  <rect x="11" y="8" width="1" height="1" class="d"/>
  <rect x="12" y="8" width="1" height="1" class="m"/>
  <rect x="13" y="8" width="1" height="1" class="b"/>
  <rect x="14" y="8" width="1" height="1" class="l"/>
  <rect x="15" y="8" width="1" height="1" class="h"/>
  <rect x="16" y="8" width="1" height="1" class="l"/>
  <rect x="17" y="8" width="1" height="1" class="b"/>
  <rect x="18" y="8" width="1" height="1" class="m"/>
  <rect x="19" y="8" width="1" height="1" class="m"/>
  <rect x="20" y="8" width="1" height="1" class="d"/>

  <!-- Row 9 - max width -->
  <rect x="10" y="9" width="1" height="1" class="d"/>
  <rect x="11" y="9" width="1" height="1" class="m"/>
  <rect x="12" y="9" width="1" height="1" class="b"/>
  <rect x="13" y="9" width="1" height="1" class="b"/>
  <rect x="14" y="9" width="1" height="1" class="l"/>
  <rect x="15" y="9" width="1" height="1" class="h"/>
  <rect x="16" y="9" width="1" height="1" class="l"/>
  <rect x="17" y="9" width="1" height="1" class="b"/>
  <rect x="18" y="9" width="1" height="1" class="b"/>
  <rect x="19" y="9" width="1" height="1" class="m"/>
  <rect x="20" y="9" width="1" height="1" class="m"/>
  <rect x="21" y="9" width="1" height="1" class="d"/>

  <!-- Row 10 -->
  <rect x="10" y="10" width="1" height="1" class="d"/>
  <rect x="11" y="10" width="1" height="1" class="m"/>
  <rect x="12" y="10" width="1" height="1" class="b"/>
  <rect x="13" y="10" width="1" height="1" class="b"/>
  <rect x="14" y="10" width="1" height="1" class="l"/>
  <rect x="15" y="10" width="1" height="1" class="h"/>
  <rect x="16" y="10" width="1" height="1" class="l"/>
  <rect x="17" y="10" width="1" height="1" class="b"/>
  <rect x="18" y="10" width="1" height="1" class="b"/>
  <rect x="19" y="10" width="1" height="1" class="m"/>
  <rect x="20" y="10" width="1" height="1" class="m"/>
  <rect x="21" y="10" width="1" height="1" class="d"/>

  <!-- Row 11 - still wide -->
  <rect x="10" y="11" width="1" height="1" class="d"/>
  <rect x="11" y="11" width="1" height="1" class="m"/>
  <rect x="12" y="11" width="1" height="1" class="b"/>
  <rect x="13" y="11" width="1" height="1" class="b"/>
  <rect x="14" y="11" width="1" height="1" class="l"/>
  <rect x="15" y="11" width="1" height="1" class="l"/>
  <rect x="16" y="11" width="1" height="1" class="b"/>
  <rect x="17" y="11" width="1" height="1" class="b"/>
  <rect x="18" y="11" width="1" height="1" class="b"/>
  <rect x="19" y="11" width="1" height="1" class="m"/>
  <rect x="20" y="11" width="1" height="1" class="m"/>
  <rect x="21" y="11" width="1" height="1" class="d"/>

  <!-- Row 12 - starting to narrow -->
  <rect x="11" y="12" width="1" height="1" class="d"/>
  <rect x="12" y="12" width="1" height="1" class="m"/>
  <rect x="13" y="12" width="1" height="1" class="b"/>
  <rect x="14" y="12" width="1" height="1" class="l"/>
  <rect x="15" y="12" width="1" height="1" class="l"/>
  <rect x="16" y="12" width="1" height="1" class="b"/>
  <rect x="17" y="12" width="1" height="1" class="b"/>
  <rect x="18" y="12" width="1" height="1" class="m"/>
  <rect x="19" y="12" width="1" height="1" class="m"/>
  <rect x="20" y="12" width="1" height="1" class="d"/>

  <!-- Row 13 -->
  <rect x="11" y="13" width="1" height="1" class="d"/>
  <rect x="12" y="13" width="1" height="1" class="m"/>
  <rect x="13" y="13" width="1" height="1" class="b"/>
  <rect x="14" y="13" width="1" height="1" class="b"/>
  <rect x="15" y="13" width="1" height="1" class="l"/>
  <rect x="16" y="13" width="1" height="1" class="b"/>
  <rect x="17" y="13" width="1" height="1" class="b"/>
  <rect x="18" y="13" width="1" height="1" class="m"/>
  <rect x="19" y="13" width="1" height="1" class="m"/>
  <rect x="20" y="13" width="1" height="1" class="d"/>

  <!-- Row 14 - narrowing -->
  <rect x="12" y="14" width="1" height="1" class="d"/>
  <rect x="13" y="14" width="1" height="1" class="m"/>
  <rect x="14" y="14" width="1" height="1" class="b"/>
  <rect x="15" y="14" width="1" height="1" class="l"/>
  <rect x="16" y="14" width="1" height="1" class="b"/>
  <rect x="17" y="14" width="1" height="1" class="b"/>
  <rect x="18" y="14" width="1" height="1" class="m"/>
  <rect x="19" y="14" width="1" height="1" class="d"/>

  <!-- Row 15 -->
  <rect x="12" y="15" width="1" height="1" class="d"/>
  <rect x="13" y="15" width="1" height="1" class="m"/>
  <rect x="14" y="15" width="1" height="1" class="b"/>
  <rect x="15" y="15" width="1" height="1" class="b"/>
  <rect x="16" y="15" width="1" height="1" class="b"/>
  <rect x="17" y="15" width="1" height="1" class="m"/>
  <rect x="18" y="15" width="1" height="1" class="m"/>
  <rect x="19" y="15" width="1" height="1" class="d"/>

  <!-- Row 16 - narrow neck starts -->
  <rect x="13" y="16" width="1" height="1" class="d"/>
  <rect x="14" y="16" width="1" height="1" class="m"/>
  <rect x="15" y="16" width="1" height="1" class="b"/>
  <rect x="16" y="16" width="1" height="1" class="b"/>
  <rect x="17" y="16" width="1" height="1" class="m"/>
  <rect x="18" y="16" width="1" height="1" class="d"/>

  <!-- Row 17 - narrowest neck -->
  <rect x="14" y="17" width="1" height="1" class="d"/>
  <rect x="15" y="17" width="1" height="1" class="m"/>
  <rect x="16" y="17" width="1" height="1" class="m"/>
  <rect x="17" y="17" width="1" height="1" class="d"/>

  <!-- Row 18 - neck -->
  <rect x="14" y="18" width="1" height="1" class="d"/>
  <rect x="15" y="18" width="1" height="1" class="m"/>
  <rect x="16" y="18" width="1" height="1" class="m"/>
  <rect x="17" y="18" width="1" height="1" class="d"/>

  <!-- Row 19 - neck -->
  <rect x="14" y="19" width="1" height="1" class="d"/>
  <rect x="15" y="19" width="1" height="1" class="b"/>
  <rect x="16" y="19" width="1" height="1" class="m"/>
  <rect x="17" y="19" width="1" height="1" class="d"/>

  <!-- Row 20 - neck widens slightly -->
  <rect x="13" y="20" width="1" height="1" class="d"/>
  <rect x="14" y="20" width="1" height="1" class="m"/>
  <rect x="15" y="20" width="1" height="1" class="b"/>
  <rect x="16" y="20" width="1" height="1" class="m"/>
  <rect x="17" y="20" width="1" height="1" class="m"/>
  <rect x="18" y="20" width="1" height="1" class="d"/>

  <!-- Row 21 - base flare begins -->
  <rect x="12" y="21" width="1" height="1" class="d"/>
  <rect x="13" y="21" width="1" height="1" class="m"/>
  <rect x="14" y="21" width="1" height="1" class="b"/>
  <rect x="15" y="21" width="1" height="1" class="l"/>
  <rect x="16" y="21" width="1" height="1" class="b"/>
  <rect x="17" y="21" width="1" height="1" class="m"/>
  <rect x="18" y="21" width="1" height="1" class="m"/>
  <rect x="19" y="21" width="1" height="1" class="d"/>

  <!-- Row 22 - base wider -->
  <rect x="10" y="22" width="1" height="1" class="d"/>
  <rect x="11" y="22" width="1" height="1" class="d"/>
  <rect x="12" y="22" width="1" height="1" class="m"/>
  <rect x="13" y="22" width="1" height="1" class="b"/>
  <rect x="14" y="22" width="1" height="1" class="b"/>
  <rect x="15" y="22" width="1" height="1" class="l"/>
  <rect x="16" y="22" width="1" height="1" class="b"/>
  <rect x="17" y="22" width="1" height="1" class="b"/>
  <rect x="18" y="22" width="1" height="1" class="m"/>
  <rect x="19" y="22" width="1" height="1" class="m"/>
  <rect x="20" y="22" width="1" height="1" class="d"/>
  <rect x="21" y="22" width="1" height="1" class="d"/>

  <!-- Row 23 - base full width -->
  <rect x="8"  y="23" width="1" height="1" class="d"/>
  <rect x="9"  y="23" width="1" height="1" class="d"/>
  <rect x="10" y="23" width="1" height="1" class="m"/>
  <rect x="11" y="23" width="1" height="1" class="m"/>
  <rect x="12" y="23" width="1" height="1" class="b"/>
  <rect x="13" y="23" width="1" height="1" class="b"/>
  <rect x="14" y="23" width="1" height="1" class="l"/>
  <rect x="15" y="23" width="1" height="1" class="l"/>
  <rect x="16" y="23" width="1" height="1" class="b"/>
  <rect x="17" y="23" width="1" height="1" class="b"/>
  <rect x="18" y="23" width="1" height="1" class="b"/>
  <rect x="19" y="23" width="1" height="1" class="m"/>
  <rect x="20" y="23" width="1" height="1" class="m"/>
  <rect x="21" y="23" width="1" height="1" class="d"/>
  <rect x="22" y="23" width="1" height="1" class="d"/>
  <rect x="23" y="23" width="1" height="1" class="d"/>

  <!-- Row 24 - base -->
  <rect x="7"  y="24" width="1" height="1" class="d"/>
  <rect x="8"  y="24" width="1" height="1" class="m"/>
  <rect x="9"  y="24" width="1" height="1" class="m"/>
  <rect x="10" y="24" width="1" height="1" class="b"/>
  <rect x="11" y="24" width="1" height="1" class="b"/>
  <rect x="12" y="24" width="1" height="1" class="b"/>
  <rect x="13" y="24" width="1" height="1" class="l"/>
  <rect x="14" y="24" width="1" height="1" class="l"/>
  <rect x="15" y="24" width="1" height="1" class="h"/>
  <rect x="16" y="24" width="1" height="1" class="l"/>
  <rect x="17" y="24" width="1" height="1" class="l"/>
  <rect x="18" y="24" width="1" height="1" class="b"/>
  <rect x="19" y="24" width="1" height="1" class="b"/>
  <rect x="20" y="24" width="1" height="1" class="b"/>
  <rect x="21" y="24" width="1" height="1" class="m"/>
  <rect x="22" y="24" width="1" height="1" class="m"/>
  <rect x="23" y="24" width="1" height="1" class="m"/>
  <rect x="24" y="24" width="1" height="1" class="d"/>

  <!-- Row 25 - base bottom -->
  <rect x="7"  y="25" width="1" height="1" class="d"/>
  <rect x="8"  y="25" width="1" height="1" class="m"/>
  <rect x="9"  y="25" width="1" height="1" class="m"/>
  <rect x="10" y="25" width="1" height="1" class="b"/>
  <rect x="11" y="25" width="1" height="1" class="b"/>
  <rect x="12" y="25" width="1" height="1" class="b"/>
  <rect x="13" y="25" width="1" height="1" class="l"/>
  <rect x="14" y="25" width="1" height="1" class="l"/>
  <rect x="15" y="25" width="1" height="1" class="l"/>
  <rect x="16" y="25" width="1" height="1" class="b"/>
  <rect x="17" y="25" width="1" height="1" class="b"/>
  <rect x="18" y="25" width="1" height="1" class="b"/>
  <rect x="19" y="25" width="1" height="1" class="b"/>
  <rect x="20" y="25" width="1" height="1" class="m"/>
  <rect x="21" y="25" width="1" height="1" class="m"/>
  <rect x="22" y="25" width="1" height="1" class="m"/>
  <rect x="23" y="25" width="1" height="1" class="d"/>
  <rect x="24" y="25" width="1" height="1" class="d"/>

  <!-- Row 26 - base underside -->
  <rect x="8"  y="26" width="1" height="1" class="d"/>
  <rect x="9"  y="26" width="1" height="1" class="d"/>
  <rect x="10" y="26" width="1" height="1" class="m"/>
  <rect x="11" y="26" width="1" height="1" class="m"/>
  <rect x="12" y="26" width="1" height="1" class="m"/>
  <rect x="13" y="26" width="1" height="1" class="b"/>
  <rect x="14" y="26" width="1" height="1" class="b"/>
  <rect x="15" y="26" width="1" height="1" class="b"/>
  <rect x="16" y="26" width="1" height="1" class="m"/>
  <rect x="17" y="26" width="1" height="1" class="m"/>
  <rect x="18" y="26" width="1" height="1" class="m"/>
  <rect x="19" y="26" width="1" height="1" class="m"/>
  <rect x="20" y="26" width="1" height="1" class="d"/>
  <rect x="21" y="26" width="1" height="1" class="d"/>
  <rect x="22" y="26" width="1" height="1" class="d"/>
  <rect x="23" y="26" width="1" height="1" class="d"/>

  <!-- Row 27 - shadow under base -->
  <rect x="9"  y="27" width="1" height="1" class="d"/>
  <rect x="10" y="27" width="1" height="1" class="d"/>
  <rect x="11" y="27" width="1" height="1" class="d"/>
  <rect x="12" y="27" width="1" height="1" class="d"/>
  <rect x="13" y="27" width="1" height="1" class="m"/>
  <rect x="14" y="27" width="1" height="1" class="m"/>
  <rect x="15" y="27" width="1" height="1" class="m"/>
  <rect x="16" y="27" width="1" height="1" class="d"/>
  <rect x="17" y="27" width="1" height="1" class="d"/>
  <rect x="18" y="27" width="1" height="1" class="d"/>
  <rect x="19" y="27" width="1" height="1" class="d"/>
  <rect x="20" y="27" width="1" height="1" class="d"/>
  <rect x="21" y="27" width="1" height="1" class="d"/>
  <rect x="22" y="27" width="1" height="1" class="d"/>

</svg>
